<mxfile host="app.diagrams.net" modified="2024-04-09T08:16:08.051Z" agent="Mozilla/5.0 (Macintosh; Intel Mac OS X 10.15; rv:124.0) Gecko/20100101 Firefox/124.0" version="24.0.6" etag="sF1Xe2pJDRgdY8rBgMrS" type="github">
  <diagram name="Page-1" id="1rYAkQxhUXCb358Tttu_">
    <mxGraphModel>
      <root>
        <mxCell id="0" />
        <mxCell id="1" parent="0" />
      </root>
    </mxGraphModel>
  </diagram>
</mxfile>
